<?xml version="1.0" encoding="utf-8"?>
<!-- Generator: Adobe Illustrator 22.1.0, SVG Export Plug-In . SVG Version: 6.00 Build 0)  -->
<svg version="1.1" id="Layer_1" xmlns="http://www.w3.org/2000/svg" xmlns:xlink="http://www.w3.org/1999/xlink" x="0px" y="0px"
	 viewBox="0 0 72 72" style="enable-background:new 0 0 72 72;" xml:space="preserve">
<style type="text/css">
	.st0{fill:url(#SVGID_1_);stroke:#FFFFFF;stroke-width:0.4;}
	.st1{fill:url(#SVGID_2_);stroke:#FFFFFF;stroke-width:0.4;}
	.st2{fill:url(#SVGID_3_);stroke:#FFFFFF;stroke-width:0.4;}
	.st3{fill:url(#SVGID_4_);stroke:#FFFFFF;stroke-width:0.4;}
	.st4{fill:url(#SVGID_5_);stroke:#FFFFFF;stroke-width:0.4;}
	.st5{enable-background:new    ;}
	.st6{fill:#E8312C;}
</style>
<linearGradient id="SVGID_1_" gradientUnits="userSpaceOnUse" x1="-1620" y1="-49.2598" x2="635.3999" y2="-49.2598" gradientTransform="matrix(1 0 0 -1 0 -13.2598)">
	<stop  offset="0.4641" style="stop-color:#D21414"/>
	<stop  offset="1" style="stop-color:#FC4D42"/>
</linearGradient>
<path class="st0" d="M31.4,54v-0.2h-0.2H3.6c-1.9,0-3.4-1.5-3.4-3.4V7.2c0-1.9,1.5-3.4,3.4-3.4h64.8c1.9,0,3.4,1.5,3.4,3.4v43.2
	c0,1.9-1.5,3.4-3.4,3.4H40.8h-0.2V54v7.2v0.2h0.2h14.4c1.9,0,3.4,1.5,3.4,3.4v3.4H13.4v-3.4c0-1.9,1.5-3.4,3.4-3.4h14.4h0.2v-0.2V54
	z M56.4,66.2h0.2V66v-1.2c0-0.8-0.6-1.4-1.4-1.4H16.8c-0.8,0-1.4,0.6-1.4,1.4V66v0.2h0.2H56.4z M38.4,61.4h0.2v-0.2V54v-0.2h-0.2
	h-4.8h-0.2V54v7.2v0.2h0.2H38.4z M68.4,51.8c0.8,0,1.4-0.6,1.4-1.4V7.2c0-0.8-0.6-1.4-1.4-1.4H3.6c-0.8,0-1.4,0.6-1.4,1.4v43.2
	c0,0.8,0.6,1.4,1.4,1.4C3.6,51.8,68.4,51.8,68.4,51.8z"/>
<linearGradient id="SVGID_2_" gradientUnits="userSpaceOnUse" x1="-1399.2" y1="-39.6598" x2="555.48" y2="-39.6598" gradientTransform="matrix(1 0 0 -1 0 -13.2598)">
	<stop  offset="0.4641" style="stop-color:#D21414"/>
	<stop  offset="1" style="stop-color:#FC4D42"/>
</linearGradient>
<path class="st1" d="M7.2,10.6H7v0.2V42v0.2h0.2h57.6H65V42V10.8v-0.2h-0.2H7.2z M67,8.6v35.6H5V8.6H67z"/>
<linearGradient id="SVGID_3_" gradientUnits="userSpaceOnUse" x1="-152.4" y1="-31.2598" x2="73.1399" y2="-31.2598" gradientTransform="matrix(1 0 0 -1 0 -13.2598)">
	<stop  offset="0.4641" style="stop-color:#D21414"/>
	<stop  offset="1" style="stop-color:#FC4D42"/>
</linearGradient>
<path class="st2" d="M12,15.4h-0.2v0.2v7h-2v-9.2h6.8v2C16.6,15.4,12,15.4,12,15.4z"/>
<linearGradient id="SVGID_4_" gradientUnits="userSpaceOnUse" x1="-44.4" y1="-39.6598" x2="30.78" y2="-39.6598" gradientTransform="matrix(1 0 0 -1 0 -13.2598)">
	<stop  offset="0.4641" style="stop-color:#D21414"/>
	<stop  offset="1" style="stop-color:#FC4D42"/>
</linearGradient>
<path class="st3" d="M9.8,25.4h2v2h-2V25.4z"/>
<linearGradient id="SVGID_5_" gradientUnits="userSpaceOnUse" x1="-129.6" y1="-61.2598" x2="95.94" y2="-61.2598" gradientTransform="matrix(1 0 0 -1 0 -13.2598)">
	<stop  offset="0.4641" style="stop-color:#D21414"/>
	<stop  offset="1" style="stop-color:#FC4D42"/>
</linearGradient>
<path class="st4" d="M32.6,47h6.8v2h-6.8V47z"/>
<g class="st5">
	<path class="st6" d="M28.7,23.4L28.7,23.4l2.7-9h2v11h-1.5v-7.9l0,0l-2.5,7.9h-1.1l-2.6-8.1l0,0v8.1h-1.5v-11h2L28.7,23.4z"/>
	<path class="st6" d="M41.8,15.6h-2.9v9.8h-1.5v-9.8h-2.9v-1.2h7.4L41.8,15.6L41.8,15.6z"/>
	<path class="st6" d="M43.2,20.5l0.6-6.1H49v1.3h-3.9L44.8,19c0.2-0.2,0.4-0.3,0.7-0.5s0.6-0.2,1-0.2c0.9,0,1.6,0.3,2.1,0.9
		s0.8,1.5,0.8,2.6s-0.3,2-0.8,2.7s-1.3,1-2.4,1c-0.9,0-1.6-0.3-2.2-0.8s-0.9-1.3-0.9-2.2l0,0h1.5c0,0.6,0.1,1.1,0.4,1.4
		c0.3,0.3,0.7,0.5,1.2,0.5c0.6,0,1-0.2,1.2-0.6c0.3-0.4,0.4-1,0.4-1.9c0-0.7-0.1-1.3-0.4-1.7s-0.7-0.7-1.2-0.7s-0.8,0.1-1.1,0.3
		c-0.2,0.2-0.4,0.5-0.5,0.8L43.2,20.5z"/>
	<path class="st6" d="M28.7,36.4L28.7,36.4l2.7-9h2v11h-1.5v-7.9l0,0l-2.5,7.9h-1.1l-2.6-8.1l0,0v8.1h-1.5v-11h2L28.7,36.4z"/>
	<path class="st6" d="M41.8,28.6h-2.9v9.8h-1.5v-9.8h-2.9v-1.2h7.4L41.8,28.6L41.8,28.6z"/>
	<path class="st6" d="M48.4,34.6h1.3v1.2h-1.3v2.6h-1.6v-2.6h-4.2v-0.9l4.2-7.6h1.6V34.6z M44.1,34.6h2.7v-5.1l0,0L46.6,30
		L44.1,34.6z"/>
</g>
</svg>
