<svg width="68" height="68" viewBox="0 0 68 68" fill="none" xmlns="http://www.w3.org/2000/svg">
<path d="M7.6375 8.5V8.3H7.4375H3.1875C2.95875 8.3 2.73937 8.20913 2.57762 8.04738C2.41587 7.88563 2.325 7.66625 2.325 7.4375V3.1875C2.325 2.95875 2.41587 2.73937 2.57762 2.57762C2.73937 2.41587 2.95875 2.325 3.1875 2.325H64.8125C65.0412 2.325 65.2606 2.41587 65.4224 2.57762C65.5841 2.73937 65.675 2.95875 65.675 3.1875V7.4375C65.675 7.66625 65.5841 7.88563 65.4224 8.04738C65.2606 8.20913 65.0412 8.3 64.8125 8.3H60.5625H60.3625V8.5V64.8125C60.3625 65.0412 60.2716 65.2606 60.1099 65.4224C59.9481 65.5841 59.7287 65.675 59.5 65.675H8.5C8.27125 65.675 8.05187 65.5841 7.89012 65.4224C7.72837 65.2606 7.6375 65.0412 7.6375 64.8125V8.5ZM58.4375 63.95H58.6375V63.75V8.5V8.3H58.4375H9.5625H9.3625V8.5V63.75V63.95H9.5625H58.4375ZM63.75 6.575H63.95V6.375V4.25V4.05H63.75H4.25H4.05V4.25V6.375V6.575H4.25H63.75Z" fill="url(#paint0_linear)" stroke="white" stroke-width="0.4"/>
<path d="M14.875 27.425H14.675V27.625V46.75V46.95H14.875H19.125H19.325V46.75V27.625V27.425H19.125H14.875ZM13.2026 56.9224L13.0612 57.0638L13.2026 56.9224C13.0409 56.7606 12.95 56.5412 12.95 56.3125V26.5625C12.95 26.3338 13.0409 26.1144 13.2026 25.9526C13.3644 25.7909 13.5838 25.7 13.8125 25.7H20.1875C20.4162 25.7 20.6356 25.7909 20.7974 25.9526C20.9591 26.1144 21.05 26.3338 21.05 26.5625V56.3125C21.05 56.5412 20.9591 56.7606 20.7974 56.9224C20.6356 57.0841 20.4163 57.175 20.1875 57.175H13.8125C13.5838 57.175 13.3644 57.0841 13.2026 56.9224ZM14.875 48.675H14.675V48.875V51V51.2H14.875H19.125H19.325V51V48.875V48.675H19.125H14.875ZM14.875 52.925H14.675V53.125V55.25V55.45H14.875H19.125H19.325V55.25V53.125V52.925H19.125H14.875Z" fill="url(#paint1_linear)" stroke="white" stroke-width="0.4"/>
<path d="M29.75 55.45H29.95V55.25V46.75V46.55H29.75H25.5H25.3V46.75V55.25V55.45H25.5H29.75ZM23.8276 56.9224L23.6862 57.0638L23.8276 56.9224C23.6659 56.7606 23.575 56.5412 23.575 56.3125V30.8125C23.575 30.5838 23.6659 30.3644 23.8276 30.2026C23.9894 30.0409 24.2088 29.95 24.4375 29.95H30.8125C31.0412 29.95 31.2606 30.0409 31.4224 30.2026C31.5841 30.3644 31.675 30.5838 31.675 30.8125V56.3125C31.675 56.5412 31.5841 56.7606 31.4224 56.9224C31.2606 57.0841 31.0413 57.175 30.8125 57.175H24.4375C24.2088 57.175 23.9894 57.0841 23.8276 56.9224ZM29.75 44.825H29.95V44.625V42.5V42.3H29.75H25.5H25.3V42.5V44.625V44.825H25.5H29.75ZM29.75 40.575H29.95V40.375V31.875V31.675H29.75H25.5H25.3V31.875V40.375V40.575H25.5H29.75Z" fill="url(#paint2_linear)" stroke="white" stroke-width="0.4"/>
<path d="M40.375 55.45H40.575V55.25V51V50.8H40.375H36.125H35.925V51V55.25V55.45H36.125H40.375ZM34.4526 56.9224L34.3112 57.0638L34.4526 56.9224C34.2909 56.7606 34.2 56.5412 34.2 56.3125V37.1875C34.2 36.9588 34.2909 36.7394 34.4526 36.5776C34.6144 36.4159 34.8338 36.325 35.0625 36.325H41.4375C41.6662 36.325 41.8856 36.4159 42.0474 36.5776C42.2091 36.7394 42.3 36.9588 42.3 37.1875V56.3125C42.3 56.5412 42.2091 56.7606 42.0474 56.9224C41.8856 57.0841 41.6663 57.175 41.4375 57.175H35.0625C34.8338 57.175 34.6144 57.0841 34.4526 56.9224ZM40.375 49.075H40.575V48.875V46.75V46.55H40.375H36.125H35.925V46.75V48.875V49.075H36.125H40.375ZM40.375 44.825H40.575V44.625V38.25V38.05H40.375H36.125H35.925V38.25V44.625V44.825H36.125H40.375Z" fill="url(#paint3_linear)" stroke="white" stroke-width="0.4"/>
<path d="M46.75 25.3H46.55V25.5V46.75V46.95H46.75H51H51.2V46.75V25.5V25.3H51H46.75ZM46.75 48.675H46.55V48.875V51V51.2H46.75H51H51.2V51V48.875V48.675H51H46.75ZM46.75 52.925H46.55V53.125V55.25V55.45H46.75H51H51.2V55.25V53.125V52.925H51H46.75ZM44.825 56.3125V24.4375C44.825 24.2088 44.9159 23.9894 45.0776 23.8276C45.2394 23.6659 45.4588 23.575 45.6875 23.575H52.0625C52.2912 23.575 52.5106 23.6659 52.6724 23.8276C52.8341 23.9894 52.925 24.2088 52.925 24.4375V56.3125C52.925 56.5412 52.8341 56.7606 52.6724 56.9224C52.5106 57.0841 52.2912 57.175 52.0625 57.175H45.6875C45.4588 57.175 45.2394 57.0841 45.0776 56.9224C44.9159 56.7606 44.825 56.5412 44.825 56.3125Z" fill="url(#paint4_linear)" stroke="white" stroke-width="0.4"/>
<path d="M12.95 12.55V10.825H32.7375V12.55H12.95Z" fill="url(#paint5_linear)" stroke="white" stroke-width="0.4"/>
<path d="M12.95 16.8V15.075H22.1125V16.8H12.95Z" fill="url(#paint6_linear)" stroke="white" stroke-width="0.4"/>
<path d="M24.6375 16.8V15.075H26.3625V16.8H24.6375Z" fill="url(#paint7_linear)" stroke="white" stroke-width="0.4"/>
<path d="M46.95 61.425V59.7H52.925V61.425H46.95Z" fill="url(#paint8_linear)" stroke="white" stroke-width="0.4"/>
<path d="M42.7 61.425V59.7H44.425V61.425H42.7Z" fill="url(#paint9_linear)" stroke="white" stroke-width="0.4"/>
<path d="M46.7602 13.9405L47.0336 13.6125H46.6066H42.5C42.2712 13.6125 42.0519 13.5216 41.8901 13.3599C41.7284 13.1981 41.6375 12.9787 41.6375 12.75C41.6375 12.5213 41.7284 12.3019 41.8901 12.1401C42.0519 11.9784 42.2712 11.8875 42.5 11.8875H48.875C49.1037 11.8875 49.3231 11.9784 49.4849 12.1401L49.6263 11.9987L49.4849 12.1401C49.6466 12.3019 49.7375 12.5212 49.7375 12.75V19.125C49.7375 19.3538 49.6466 19.5731 49.4849 19.7349C49.3231 19.8966 49.1037 19.9875 48.875 19.9875C48.6462 19.9875 48.4269 19.8966 48.2651 19.7349C48.1034 19.5731 48.0125 19.3538 48.0125 19.125V15.6846V15.1325L47.6589 15.5565L38.9082 26.0498C38.7635 26.2231 38.5567 26.3329 38.3321 26.3555C38.1075 26.378 37.8829 26.3116 37.7067 26.1705L37.7066 26.1705L33.1379 22.5144L32.9981 22.4025L32.8715 22.5291L28.2316 27.1691C28.2316 27.1691 28.2316 27.1691 28.2316 27.1691C28.0779 27.3227 27.8719 27.4127 27.6547 27.421C27.4376 27.4294 27.2253 27.3554 27.0603 27.2139L27.0603 27.2139L20.2337 21.3627L20.1187 21.2641L19.9926 21.3482L17.4755 23.0269L17.4755 23.0269C17.2852 23.1539 17.0522 23.2001 16.8279 23.1552C16.6035 23.1104 16.4061 22.9783 16.2792 22.788C16.1522 22.5977 16.1061 22.3647 16.1509 22.1404C16.1957 21.916 16.3278 21.7187 16.5181 21.5917C16.5181 21.5917 16.5181 21.5917 16.5181 21.5917L19.7056 19.4667L19.7056 19.4667C19.8621 19.3623 20.0485 19.312 20.2363 19.3233C20.4241 19.3347 20.603 19.4072 20.7458 19.5297L20.7458 19.5297L27.4396 25.2672L27.5802 25.3878L27.7112 25.2568L32.3277 20.6402L32.3278 20.6402C32.4778 20.49 32.678 20.4005 32.89 20.3887C33.102 20.3769 33.3108 20.4438 33.4766 20.5764L37.9753 24.1751L38.1283 24.2975L38.2538 24.1469L46.7602 13.9405Z" fill="url(#paint10_linear)" stroke="white" stroke-width="0.4"/>
<defs>
<linearGradient id="paint0_linear" x1="34" y1="2.125" x2="34" y2="65.875" gradientUnits="userSpaceOnUse">
<stop stop-color="#FF4B55"/>
<stop offset="1" stop-color="#D21414"/>
</linearGradient>
<linearGradient id="paint1_linear" x1="17" y1="25.5" x2="17" y2="57.375" gradientUnits="userSpaceOnUse">
<stop stop-color="#FF4B55"/>
<stop offset="1" stop-color="#D21414"/>
</linearGradient>
<linearGradient id="paint2_linear" x1="27.625" y1="29.75" x2="27.625" y2="57.375" gradientUnits="userSpaceOnUse">
<stop stop-color="#FF4B55"/>
<stop offset="1" stop-color="#D21414"/>
</linearGradient>
<linearGradient id="paint3_linear" x1="38.25" y1="36.125" x2="38.25" y2="57.375" gradientUnits="userSpaceOnUse">
<stop stop-color="#FF4B55"/>
<stop offset="1" stop-color="#D21414"/>
</linearGradient>
<linearGradient id="paint4_linear" x1="48.875" y1="23.375" x2="48.875" y2="57.375" gradientUnits="userSpaceOnUse">
<stop stop-color="#FF4B55"/>
<stop offset="1" stop-color="#D21414"/>
</linearGradient>
<linearGradient id="paint5_linear" x1="22.8438" y1="10.625" x2="22.8438" y2="12.75" gradientUnits="userSpaceOnUse">
<stop stop-color="#FF4B55"/>
<stop offset="1" stop-color="#D21414"/>
</linearGradient>
<linearGradient id="paint6_linear" x1="17.5312" y1="14.875" x2="17.5312" y2="17" gradientUnits="userSpaceOnUse">
<stop stop-color="#FF4B55"/>
<stop offset="1" stop-color="#D21414"/>
</linearGradient>
<linearGradient id="paint7_linear" x1="25.5" y1="14.875" x2="25.5" y2="17" gradientUnits="userSpaceOnUse">
<stop stop-color="#FF4B55"/>
<stop offset="1" stop-color="#D21414"/>
</linearGradient>
<linearGradient id="paint8_linear" x1="49.9375" y1="59.5" x2="49.9375" y2="61.625" gradientUnits="userSpaceOnUse">
<stop stop-color="#FF4B55"/>
<stop offset="1" stop-color="#D21414"/>
</linearGradient>
<linearGradient id="paint9_linear" x1="43.5625" y1="59.5" x2="43.5625" y2="61.625" gradientUnits="userSpaceOnUse">
<stop stop-color="#FF4B55"/>
<stop offset="1" stop-color="#D21414"/>
</linearGradient>
<linearGradient id="paint10_linear" x1="32.9358" y1="11.6875" x2="32.9358" y2="27.6217" gradientUnits="userSpaceOnUse">
<stop stop-color="#FF4B55"/>
<stop offset="1" stop-color="#D21414"/>
</linearGradient>
</defs>
</svg>
