<svg width="74" height="74" viewBox="0 0 74 74" fill="none" xmlns="http://www.w3.org/2000/svg">
<path d="M23.125 39.3125C20.8382 39.3125 18.6027 39.9906 16.7012 41.2611C14.7998 42.5316 13.3178 44.3374 12.4426 46.4502C11.5675 48.563 11.3385 50.8878 11.7847 53.1307C12.2308 55.3736 13.332 57.4339 14.9491 59.0509C16.5661 60.668 18.6264 61.7692 20.8693 62.2153C23.1122 62.6615 25.437 62.4325 27.5498 61.5574C29.6626 60.6822 31.4684 59.2002 32.7389 57.2988C34.0094 55.3973 34.6875 53.1618 34.6875 50.875C34.6841 47.8095 33.4649 44.8705 31.2972 42.7028C29.1296 40.5351 26.1905 39.3159 23.125 39.3125ZM23.125 60.125C21.2955 60.125 19.5071 59.5825 17.986 58.5661C16.4648 57.5497 15.2792 56.105 14.5791 54.4148C13.879 52.7246 13.6958 50.8647 14.0527 49.0704C14.4097 47.2761 15.2906 45.6279 16.5843 44.3343C17.8779 43.0406 19.5261 42.1596 21.3204 41.8027C23.1147 41.4458 24.9746 41.629 26.6648 42.3291C28.355 43.0292 29.7997 44.2148 30.8161 45.736C31.8325 47.2571 32.375 49.0455 32.375 50.875C32.3723 53.3274 31.3968 55.6786 29.6627 57.4127C27.9286 59.1468 25.5774 60.1222 23.125 60.125V60.125Z" fill="url(#paint0_linear)"/>
<path d="M23.125 47.4062C23.4317 47.4062 23.7258 47.5281 23.9426 47.7449C24.1594 47.9617 24.2812 48.2558 24.2812 48.5625H26.5938C26.5908 47.8476 26.367 47.1511 25.9531 46.5683C25.5391 45.9855 24.9552 45.5448 24.2812 45.3065V43.9375H21.9688V45.3065C21.1979 45.578 20.548 46.1136 20.1342 46.8183C19.7204 47.5231 19.5693 48.3516 19.7078 49.157C19.8463 49.9625 20.2654 50.6929 20.8908 51.219C21.5163 51.7451 22.3077 52.0328 23.125 52.0312C23.3537 52.0312 23.5772 52.0991 23.7674 52.2261C23.9575 52.3532 24.1057 52.5337 24.1932 52.745C24.2807 52.9563 24.3036 53.1888 24.259 53.4131C24.2144 53.6374 24.1043 53.8434 23.9426 54.0051C23.7809 54.1668 23.5749 54.2769 23.3506 54.3215C23.1263 54.3661 22.8938 54.3432 22.6825 54.2557C22.4712 54.1682 22.2907 54.02 22.1636 53.8299C22.0366 53.6397 21.9688 53.4162 21.9688 53.1875H19.6562C19.6592 53.9024 19.883 54.5989 20.2969 55.1817C20.7109 55.7645 21.2948 56.2052 21.9688 56.4435V57.8125H24.2812V56.4435C25.0521 56.172 25.702 55.6364 26.1158 54.9317C26.5296 54.2269 26.6807 53.3984 26.5422 52.593C26.4037 51.7875 25.9846 51.0571 25.3592 50.531C24.7337 50.0049 23.9423 49.7172 23.125 49.7188C22.8183 49.7188 22.5242 49.5969 22.3074 49.3801C22.0906 49.1633 21.9688 48.8692 21.9688 48.5625C21.9688 48.2558 22.0906 47.9617 22.3074 47.7449C22.5242 47.5281 22.8183 47.4062 23.125 47.4062Z" fill="url(#paint1_linear)"/>
<path d="M65.9062 4.625H28.9062C27.3735 4.62684 25.9041 5.23652 24.8203 6.32032C23.7365 7.40411 23.1268 8.87353 23.125 10.4062V30.0625H25.4375V10.4062C25.4375 9.48628 25.803 8.60399 26.4535 7.95347C27.104 7.30296 27.9863 6.9375 28.9062 6.9375H65.9062C66.8262 6.9375 67.7085 7.30296 68.359 7.95347C69.0095 8.60399 69.375 9.48628 69.375 10.4062V33.5312C69.375 34.4512 69.0095 35.3335 68.359 35.984C67.7085 36.6345 66.8262 37 65.9062 37H46.25V39.3125H50.875V63.5938C50.872 64.3086 50.6483 65.0051 50.2343 65.5879C49.8204 66.1708 49.2365 66.6115 48.5625 66.8498V42.7812H46.25V66.8498C45.576 66.6115 44.9921 66.1708 44.5782 65.5879C44.1642 65.0051 43.9405 64.3086 43.9375 63.5938V38.1562C43.9357 36.6235 43.326 35.1541 42.2422 34.0703C41.1584 32.9865 39.689 32.3768 38.1562 32.375H8.09375C6.56103 32.3768 5.09161 32.9865 4.00782 34.0703C2.92402 35.1541 2.31434 36.6235 2.3125 38.1562V63.5938C2.31434 65.1265 2.92402 66.5959 4.00782 67.6797C5.09161 68.7635 6.56103 69.3732 8.09375 69.375H47.4062C48.939 69.3732 50.4084 68.7635 51.4922 67.6797C52.576 66.5959 53.1857 65.1265 53.1875 63.5938V39.3125H65.9062C67.439 39.3107 68.9084 38.701 69.9922 37.6172C71.076 36.5334 71.6857 35.064 71.6875 33.5312V10.4062C71.6857 8.87353 71.076 7.40411 69.9922 6.32032C68.9084 5.23652 67.439 4.62684 65.9062 4.625V4.625ZM8.09375 67.0625C7.17378 67.0625 6.29149 66.697 5.64097 66.0465C4.99046 65.396 4.625 64.5137 4.625 63.5938V38.1562C4.625 37.2363 4.99046 36.354 5.64097 35.7035C6.29149 35.053 7.17378 34.6875 8.09375 34.6875H38.1562C39.0762 34.6875 39.9585 35.053 40.609 35.7035C41.2595 36.354 41.625 37.2363 41.625 38.1562V63.5938C41.6227 64.845 42.0287 66.0629 42.7812 67.0625H8.09375Z" fill="url(#paint2_linear)"/>
<path d="M39.3125 11.5625H32.375C31.7617 11.5625 31.1735 11.8061 30.7398 12.2398C30.3061 12.6735 30.0625 13.2617 30.0625 13.875V18.5C30.0625 19.1133 30.3061 19.7015 30.7398 20.1352C31.1735 20.5689 31.7617 20.8125 32.375 20.8125H39.3125C39.9258 20.8125 40.514 20.5689 40.9477 20.1352C41.3814 19.7015 41.625 19.1133 41.625 18.5V13.875C41.625 13.2617 41.3814 12.6735 40.9477 12.2398C40.514 11.8061 39.9258 11.5625 39.3125 11.5625ZM32.375 18.5V13.875H39.3125V18.5H32.375Z" fill="url(#paint3_linear)"/>
<path d="M49.7188 27.75C49.7188 28.9766 50.206 30.153 51.0734 31.0204C51.9407 31.8877 53.1171 32.375 54.3437 32.375C55.3935 32.3703 56.4098 32.0054 57.2228 31.3413C57.9014 31.892 58.7222 32.2391 59.59 32.3425C60.4578 32.4459 61.3371 32.3013 62.1261 31.9255C62.9151 31.5496 63.5814 30.958 64.048 30.219C64.5145 29.48 64.7621 28.6239 64.7621 27.75C64.7621 26.8761 64.5145 26.02 64.048 25.281C63.5814 24.542 62.9151 23.9504 62.1261 23.5745C61.3371 23.1987 60.4578 23.0541 59.59 23.1575C58.7222 23.2609 57.9014 23.608 57.2228 24.1587C56.4098 23.4946 55.3935 23.1297 54.3437 23.125C53.1171 23.125 51.9407 23.6123 51.0734 24.4796C50.206 25.347 49.7188 26.5234 49.7188 27.75ZM62.4375 27.75C62.4375 28.3633 62.1939 28.9515 61.7602 29.3852C61.3265 29.8189 60.7383 30.0625 60.125 30.0625C59.5723 30.0639 59.0381 29.8642 58.6219 29.5006C58.8524 28.9457 58.9711 28.3508 58.9711 27.75C58.9711 27.1492 58.8524 26.5543 58.6219 25.9994C59.0381 25.6358 59.5723 25.4361 60.125 25.4375C60.7383 25.4375 61.3265 25.6811 61.7602 26.1148C62.1939 26.5485 62.4375 27.1367 62.4375 27.75ZM54.3437 25.4375C54.8011 25.4375 55.2482 25.5731 55.6285 25.8272C56.0088 26.0813 56.3052 26.4425 56.4802 26.865C56.6552 27.2876 56.701 27.7526 56.6118 28.2011C56.5226 28.6497 56.3023 29.0618 55.9789 29.3852C55.6555 29.7086 55.2435 29.9288 54.7949 30.0181C54.3463 30.1073 53.8813 30.0615 53.4588 29.8865C53.0362 29.7114 52.6751 29.415 52.421 29.0348C52.1669 28.6545 52.0312 28.2074 52.0312 27.75C52.0312 27.1367 52.2749 26.5485 52.7086 26.1148C53.1422 25.6811 53.7304 25.4375 54.3437 25.4375Z" fill="url(#paint4_linear)"/>
<path d="M64.75 12.7188H62.4375V17.3438H64.75V12.7188Z" fill="url(#paint5_linear)"/>
<path d="M60.125 12.7188H57.8125V17.3438H60.125V12.7188Z" fill="url(#paint6_linear)"/>
<path d="M55.5 12.7188H53.1875V17.3438H55.5V12.7188Z" fill="url(#paint7_linear)"/>
<path d="M50.875 12.7188H48.5625V17.3438H50.875V12.7188Z" fill="url(#paint8_linear)"/>
<path d="M32.375 25.4375H30.0625V27.75H32.375V25.4375Z" fill="url(#paint9_linear)"/>
<path d="M37 25.4375H34.6875V27.75H37V25.4375Z" fill="url(#paint10_linear)"/>
<path d="M39.3125 25.4375V27.75H41.625H43.9375V25.4375H41.625H39.3125Z" fill="url(#paint11_linear)"/>
<path d="M20.8125 11.5625H13.875V13.875H20.8125V11.5625Z" fill="url(#paint12_linear)"/>
<path d="M16.1875 16.1875H6.9375V18.5H16.1875V16.1875Z" fill="url(#paint13_linear)"/>
<path d="M4.625 16.1875H2.3125V18.5H4.625V16.1875Z" fill="url(#paint14_linear)"/>
<path d="M18.5 20.8125H13.875V23.125H18.5V20.8125Z" fill="url(#paint15_linear)"/>
<path d="M11.5625 20.8125H9.25V23.125H11.5625V20.8125Z" fill="url(#paint16_linear)"/>
<path d="M16.1875 25.4375H11.5625V27.75H16.1875V25.4375Z" fill="url(#paint17_linear)"/>
<path d="M9.25 25.4375H6.9375V27.75H9.25V25.4375Z" fill="url(#paint18_linear)"/>
<path d="M4.625 25.4375H2.3125V27.75H4.625V25.4375Z" fill="url(#paint19_linear)"/>
<defs>
<linearGradient id="paint0_linear" x1="23.125" y1="39.3125" x2="23.125" y2="62.4375" gradientUnits="userSpaceOnUse">
<stop stop-color="#D21414"/>
<stop offset="1" stop-color="#FC4D42"/>
</linearGradient>
<linearGradient id="paint1_linear" x1="23.125" y1="43.9375" x2="23.125" y2="57.8125" gradientUnits="userSpaceOnUse">
<stop stop-color="#D21414"/>
<stop offset="1" stop-color="#FC4D42"/>
</linearGradient>
<linearGradient id="paint2_linear" x1="37" y1="4.625" x2="37" y2="69.375" gradientUnits="userSpaceOnUse">
<stop stop-color="#D21414"/>
<stop offset="1" stop-color="#FC4D42"/>
</linearGradient>
<linearGradient id="paint3_linear" x1="35.8438" y1="11.5625" x2="35.8438" y2="20.8125" gradientUnits="userSpaceOnUse">
<stop stop-color="#D21414"/>
<stop offset="1" stop-color="#FC4D42"/>
</linearGradient>
<linearGradient id="paint4_linear" x1="57.2404" y1="23.125" x2="57.2404" y2="32.375" gradientUnits="userSpaceOnUse">
<stop stop-color="#D21414"/>
<stop offset="1" stop-color="#FC4D42"/>
</linearGradient>
<linearGradient id="paint5_linear" x1="63.5938" y1="12.7188" x2="63.5938" y2="17.3438" gradientUnits="userSpaceOnUse">
<stop stop-color="#D21414"/>
<stop offset="1" stop-color="#FC4D42"/>
</linearGradient>
<linearGradient id="paint6_linear" x1="58.9688" y1="12.7188" x2="58.9688" y2="17.3438" gradientUnits="userSpaceOnUse">
<stop stop-color="#D21414"/>
<stop offset="1" stop-color="#FC4D42"/>
</linearGradient>
<linearGradient id="paint7_linear" x1="54.3438" y1="12.7188" x2="54.3438" y2="17.3438" gradientUnits="userSpaceOnUse">
<stop stop-color="#D21414"/>
<stop offset="1" stop-color="#FC4D42"/>
</linearGradient>
<linearGradient id="paint8_linear" x1="49.7188" y1="12.7188" x2="49.7188" y2="17.3438" gradientUnits="userSpaceOnUse">
<stop stop-color="#D21414"/>
<stop offset="1" stop-color="#FC4D42"/>
</linearGradient>
<linearGradient id="paint9_linear" x1="31.2188" y1="25.4375" x2="31.2188" y2="27.75" gradientUnits="userSpaceOnUse">
<stop stop-color="#D21414"/>
<stop offset="1" stop-color="#FC4D42"/>
</linearGradient>
<linearGradient id="paint10_linear" x1="35.8438" y1="25.4375" x2="35.8438" y2="27.75" gradientUnits="userSpaceOnUse">
<stop stop-color="#D21414"/>
<stop offset="1" stop-color="#FC4D42"/>
</linearGradient>
<linearGradient id="paint11_linear" x1="41.625" y1="25.4375" x2="41.625" y2="27.75" gradientUnits="userSpaceOnUse">
<stop stop-color="#D21414"/>
<stop offset="1" stop-color="#FC4D42"/>
</linearGradient>
<linearGradient id="paint12_linear" x1="17.3438" y1="11.5625" x2="17.3438" y2="13.875" gradientUnits="userSpaceOnUse">
<stop stop-color="#D21414"/>
<stop offset="1" stop-color="#FC4D42"/>
</linearGradient>
<linearGradient id="paint13_linear" x1="11.5625" y1="16.1875" x2="11.5625" y2="18.5" gradientUnits="userSpaceOnUse">
<stop stop-color="#D21414"/>
<stop offset="1" stop-color="#FC4D42"/>
</linearGradient>
<linearGradient id="paint14_linear" x1="3.46875" y1="16.1875" x2="3.46875" y2="18.5" gradientUnits="userSpaceOnUse">
<stop stop-color="#D21414"/>
<stop offset="1" stop-color="#FC4D42"/>
</linearGradient>
<linearGradient id="paint15_linear" x1="16.1875" y1="20.8125" x2="16.1875" y2="23.125" gradientUnits="userSpaceOnUse">
<stop stop-color="#D21414"/>
<stop offset="1" stop-color="#FC4D42"/>
</linearGradient>
<linearGradient id="paint16_linear" x1="10.4062" y1="20.8125" x2="10.4062" y2="23.125" gradientUnits="userSpaceOnUse">
<stop stop-color="#D21414"/>
<stop offset="1" stop-color="#FC4D42"/>
</linearGradient>
<linearGradient id="paint17_linear" x1="13.875" y1="25.4375" x2="13.875" y2="27.75" gradientUnits="userSpaceOnUse">
<stop stop-color="#D21414"/>
<stop offset="1" stop-color="#FC4D42"/>
</linearGradient>
<linearGradient id="paint18_linear" x1="8.09375" y1="25.4375" x2="8.09375" y2="27.75" gradientUnits="userSpaceOnUse">
<stop stop-color="#D21414"/>
<stop offset="1" stop-color="#FC4D42"/>
</linearGradient>
<linearGradient id="paint19_linear" x1="3.46875" y1="25.4375" x2="3.46875" y2="27.75" gradientUnits="userSpaceOnUse">
<stop stop-color="#D21414"/>
<stop offset="1" stop-color="#FC4D42"/>
</linearGradient>
</defs>
</svg>
