<?xml version="1.0" encoding="utf-8"?>
<!-- Generator: Adobe Illustrator 23.0.2, SVG Export Plug-In . SVG Version: 6.00 Build 0)  -->
<svg version="1.1" id="Layer_1" xmlns="http://www.w3.org/2000/svg" xmlns:xlink="http://www.w3.org/1999/xlink" x="0px" y="0px"
	 viewBox="0 0 84 84" style="enable-background:new 0 0 84 84;" xml:space="preserve">
<style type="text/css">
	.st0{fill:url(#SVGID_1_);stroke:#FFFFFF;stroke-width:0.5;stroke-miterlimit:10;}
	.st1{fill:url(#SVGID_2_);stroke:#FFFFFF;stroke-width:0.5;stroke-miterlimit:10;}
	.st2{fill:url(#SVGID_3_);stroke:#FFFFFF;stroke-width:0.5;stroke-miterlimit:10;}
</style>
<linearGradient id="SVGID_1_" gradientUnits="userSpaceOnUse" x1="2.6259" y1="43.996" x2="79.4715" y2="43.996" gradientTransform="matrix(1 0 0 -1 0 86)">
	<stop  offset="0" style="stop-color:#D21414"/>
	<stop  offset="1" style="stop-color:#FC4D42"/>
</linearGradient>
<path class="st0" d="M80.6,26.4L42.5,9.3c-0.2-0.1-0.4-0.1-0.5-0.1s-0.4,0-0.5,0.1L3.4,26.4c-0.2,0.1-0.4,0.3-0.6,0.5
	c-0.1,0.2-0.2,0.5-0.2,0.7c0,0.3,0.1,0.5,0.2,0.7c0.1,0.2,0.3,0.4,0.6,0.5l8.4,3.6v21.4c0,6.5,29,6.6,30.2,6.6
	c5.7,0,11.4-0.3,17.1-1v11.5c0,0.2,0.1,0.5,0.2,0.7c0.1,0.2,0.3,0.4,0.5,0.5l5.2,2.6c0.2,0.1,0.4,0.1,0.6,0.1c0.2,0,0.4-0.1,0.6-0.2
	c0.2-0.1,0.3-0.3,0.5-0.5c0.1-0.2,0.2-0.4,0.2-0.6V57.8c3.6-1,5.2-2.3,5.2-4V32.4l8.4-3.6c0.2-0.1,0.4-0.3,0.6-0.5
	c0.1-0.2,0.2-0.5,0.2-0.7c0-0.3-0.1-0.5-0.2-0.7C81,26.6,80.8,26.5,80.6,26.4L80.6,26.4z M42,11.9l19.7,8.8v5.6
	C55.2,25.4,48.6,25,42,24.9c-1.1,0-24.9,0.1-29.5,4.9l-5.3-2.3L42,11.9z M63,32.8c-0.3,0-0.5-0.1-0.7-0.2c-0.2-0.1-0.4-0.3-0.5-0.6
	s-0.1-0.5-0.1-0.8c0.1-0.3,0.2-0.5,0.4-0.7c0.2-0.2,0.4-0.3,0.7-0.4c0.3-0.1,0.5,0,0.8,0.1c0.2,0.1,0.4,0.3,0.6,0.5
	c0.1,0.2,0.2,0.5,0.2,0.7c0,0.3-0.1,0.7-0.4,0.9C63.7,32.7,63.3,32.8,63,32.8z M61.1,34.9l-1.9,3.8c-0.1,0.2-0.1,0.4-0.1,0.6V43
	c-5.7-0.7-11.4-1-17.1-1c-1,0-20.4,0-27.6,3.6l0-14c0.7-1.5,10.5-4,27.6-4c6.1,0,12.2,0.3,18.2,1.2c-0.4,0.4-0.7,1-0.9,1.5
	c-0.2,0.6-0.2,1.2-0.1,1.8c0.1,0.6,0.3,1.2,0.7,1.7C60.1,34.2,60.6,34.7,61.1,34.9L61.1,34.9z M14.4,50.8v-2.2
	c0.8-1.5,10.6-4,27.6-4c5.7,0,11.4,0.3,17.1,1v2.6c-5.7-0.7-11.4-1-17.1-1C41,47.2,21.6,47.3,14.4,50.8z M42,57.8
	c-16.9,0-26.7-2.5-27.5-3.9c1-1.5,10.7-4,27.5-4c5.7,0,11.4,0.3,17.1,1v5.8C53.4,57.4,47.7,57.8,42,57.8L42,57.8z M64.3,71.4
	l-2.6-1.3V39.7l1.3-2.6l1.3,2.6V71.4z M64.9,34.9c0.6-0.3,1.1-0.8,1.5-1.4c0.4-0.6,0.6-1.3,0.6-2c0-0.5-0.1-0.9-0.3-1.4
	c1.7,0.5,2.7,1,2.9,1.4l0,14c-0.9-0.4-1.7-0.7-2.6-1v-5.2c0-0.2,0-0.4-0.1-0.6L64.9,34.9z M69.6,50.8c-0.9-0.4-1.7-0.7-2.6-1v-2.5
	c2.2,0.7,2.6,1.3,2.6,1.4L69.6,50.8z M66.9,55.1v-2.5c0.9,0.2,1.8,0.7,2.6,1.3C68.7,54.4,67.9,54.8,66.9,55.1L66.9,55.1z M69.6,48.6
	C69.6,48.6,69.6,48.6,69.6,48.6L69.6,48.6L69.6,48.6z M71.5,29.8c-1.2-1.3-3.9-2.3-7.1-3v-4.9l12.5,5.6L71.5,29.8z"/>
<linearGradient id="SVGID_2_" gradientUnits="userSpaceOnUse" x1="22.3125" y1="51.875" x2="176.004" y2="51.875" gradientTransform="matrix(1 0 0 -1 0 86)">
	<stop  offset="0" style="stop-color:#D21414"/>
	<stop  offset="1" style="stop-color:#FC4D42"/>
</linearGradient>
<path class="st1" d="M19.7,32.8h-2.6v2.6h2.6V32.8z"/>
<linearGradient id="SVGID_3_" gradientUnits="userSpaceOnUse" x1="27.5625" y1="53.1875" x2="181.254" y2="53.1875" gradientTransform="matrix(1 0 0 -1 0 86)">
	<stop  offset="0" style="stop-color:#D21414"/>
	<stop  offset="1" style="stop-color:#FF4B55"/>
</linearGradient>
<path class="st2" d="M24.9,31.5h-2.6v2.6h2.6V31.5z"/>
</svg>
