<svg width="78" height="78" viewBox="0 0 78 78" fill="none" xmlns="http://www.w3.org/2000/svg">
<g clip-path="url(#clip0)">
<path d="M43.504 30.7526L43.5038 30.7524C43.2643 30.5557 43.1221 30.2687 43.1044 29.9579C43.0919 29.6481 43.2082 29.3478 43.4269 29.1291L64.2245 8.33144C64.6542 7.90179 65.3501 7.90179 65.7797 8.33144C70.9353 13.487 73.9011 21.3486 73.9011 29.9067L73.9011 29.9089C73.9767 36.8122 71.5816 43.5189 67.1441 48.8137C66.9336 49.0627 66.6242 49.2045 66.302 49.2045C66.0448 49.2045 65.8002 49.1147 65.6017 48.9507L65.6015 48.9505L43.504 30.7526ZM65.1311 10.8504L64.991 10.6805L64.8353 10.8362L45.9926 29.6738L45.8367 29.8296L46.0068 29.9697L65.9819 46.4159L66.1427 46.5483L66.2685 46.3822C69.8539 41.646 71.7671 35.8462 71.7014 29.9081C71.8744 22.9711 69.5429 16.2029 65.1311 10.8504Z" fill="url(#paint0_linear)" stroke="white" stroke-width="0.4"/>
<path d="M64.5448 52.7129L64.5447 52.713C58.8296 59.4773 50.4563 63.4169 41.6039 63.5029C40.9942 63.5024 40.5049 63.0088 40.5049 62.4031V33.8063C40.5049 33.3816 40.7493 32.9945 41.1371 32.809C41.5187 32.6292 41.9741 32.6846 42.3055 32.9556C42.3056 32.9556 42.3057 32.9557 42.3058 32.9558L64.4007 51.1516C64.4011 51.1519 64.4014 51.1522 64.4017 51.1524C64.6269 51.3434 64.7722 51.6152 64.7978 51.9051C64.8237 52.1984 64.7329 52.4905 64.5448 52.7129ZM42.7046 61.0677V61.2795L42.9161 61.2674C50.1931 60.848 57.0251 57.6263 61.9803 52.2876L62.1247 52.1321L61.9609 51.9972L43.0318 36.404L42.7046 36.1345V36.5584V61.0677Z" fill="url(#paint1_linear)" stroke="white" stroke-width="0.4"/>
<path d="M37.7054 0.21011V0.210169L37.7103 0.210046C45.2971 0.0184846 52.6268 2.95239 57.9803 8.33113L57.9806 8.33146C58.4103 8.76111 58.4103 9.45704 57.9806 9.88669L37.5638 30.3035L37.5052 30.3621V30.4449V58.5034C37.5052 59.1089 37.0108 59.6033 36.4054 59.6033C20.4892 59.6033 8.00867 46.5708 8.00862 29.9068C8.02381 13.51 21.3086 0.225241 37.7054 0.21011ZM35.0948 57.3678L35.3055 57.3791V57.168V29.9067C35.3055 29.6146 35.4215 29.3354 35.6278 29.1291L55.486 9.2708L55.6342 9.12267L55.4793 8.98156C50.6333 4.56533 44.2573 2.20591 37.702 2.40982C22.5229 2.42679 10.2237 14.727 10.2083 29.9065V29.9067C10.2083 46.5283 22.6383 56.6973 35.0948 57.3678Z" fill="url(#paint2_linear)" stroke="white" stroke-width="0.4"/>
<path d="M37.5052 62.601V64.7985C36.1422 64.7575 28.1104 64.3323 20.1191 60.1202C15.778 57.8321 11.4527 54.4286 8.21216 49.3648C4.99637 44.3398 2.84152 37.6685 2.80958 28.8069H5.0093C5.04021 37.0786 6.98875 43.3351 9.93028 48.0646C12.8951 52.8315 16.8615 56.0359 20.8654 58.1891C28.3881 62.2345 36.0539 62.5748 37.5052 62.601Z" fill="url(#paint3_linear)" stroke="white" stroke-width="0.4"/>
<path d="M2.80922 23.6075H5.00922V25.8075H2.80922V23.6075Z" fill="url(#paint4_linear)" stroke="white" stroke-width="0.4"/>
<path d="M35.1058 70.0024H34.9058V70.2024V75.4024V75.6024H35.1058H40.3058H40.5058V75.4024V70.2024V70.0024H40.3058H35.1058ZM42.7058 67.8024V77.8024H32.7058V67.8024H42.7058Z" fill="url(#paint5_linear)" stroke="white" stroke-width="0.4"/>
<path d="M48.1043 70.0024H47.9043V70.2024V75.4024V75.6024H48.1043H53.3043H53.5043V75.4024V70.2024V70.0024H53.3043H48.1043ZM45.7043 67.8024H55.7043V77.8024H45.7043V67.8024Z" fill="url(#paint6_linear)" stroke="white" stroke-width="0.4"/>
<path d="M22.1073 70.0024H21.9073V70.2024V75.4024V75.6024H22.1073H27.3073H27.5073V75.4024V70.2024V70.0024H27.3073H22.1073ZM19.7073 67.8024H29.7073V77.8024H19.7073V67.8024Z" fill="url(#paint7_linear)" stroke="white" stroke-width="0.4"/>
<path d="M68.7011 29.7067H66.5072C66.6071 25.0313 65.3619 20.4269 62.9274 16.4359L64.6988 15.1095C65.3755 16.0905 68.65 21.2553 68.7011 29.7067Z" fill="url(#paint8_linear)" stroke="white" stroke-width="0.4"/>
</g>
<defs>
<linearGradient id="paint0_linear" x1="-5.1905" y1="28.6056" x2="85.2584" y2="28.6056" gradientUnits="userSpaceOnUse">
<stop stop-color="#D21414"/>
<stop offset="1" stop-color="#FC4D42"/>
</linearGradient>
<linearGradient id="paint1_linear" x1="2.23399" y1="48.1029" x2="73.8328" y2="48.1029" gradientUnits="userSpaceOnUse">
<stop stop-color="#D21414"/>
<stop offset="1" stop-color="#FC4D42"/>
</linearGradient>
<linearGradient id="paint2_linear" x1="-70.3369" y1="29.9004" x2="76.6289" y2="29.9004" gradientUnits="userSpaceOnUse">
<stop stop-color="#D21414"/>
<stop offset="1" stop-color="#FC4D42"/>
</linearGradient>
<linearGradient id="paint3_linear" x1="-51.4915" y1="46.8038" x2="50.254" y2="46.8038" gradientUnits="userSpaceOnUse">
<stop stop-color="#D21414"/>
<stop offset="1" stop-color="#FC4D42"/>
</linearGradient>
<linearGradient id="paint4_linear" x1="-1.3987" y1="24.7074" x2="6.13887" y2="24.7074" gradientUnits="userSpaceOnUse">
<stop stop-color="#D21414"/>
<stop offset="1" stop-color="#FC4D42"/>
</linearGradient>
<linearGradient id="paint5_linear" x1="16.4742" y1="72.8021" x2="46.6244" y2="72.8021" gradientUnits="userSpaceOnUse">
<stop stop-color="#D21414"/>
<stop offset="1" stop-color="#FC4D42"/>
</linearGradient>
<linearGradient id="paint6_linear" x1="29.4726" y1="72.8021" x2="59.6229" y2="72.8021" gradientUnits="userSpaceOnUse">
<stop stop-color="#D21414"/>
<stop offset="1" stop-color="#FC4D42"/>
</linearGradient>
<linearGradient id="paint7_linear" x1="3.47562" y1="72.8021" x2="33.6259" y2="72.8021" gradientUnits="userSpaceOnUse">
<stop stop-color="#D21414"/>
<stop offset="1" stop-color="#FC4D42"/>
</linearGradient>
<linearGradient id="paint8_linear" x1="53.0419" y1="22.3661" x2="71.1329" y2="22.3661" gradientUnits="userSpaceOnUse">
<stop stop-color="#D21414"/>
<stop offset="1" stop-color="#FC4D42"/>
</linearGradient>
<clipPath id="clip0">
<rect width="78" height="78" fill="white"/>
</clipPath>
</defs>
</svg>
