<svg width="68" height="68" viewBox="0 0 68 68" fill="none" xmlns="http://www.w3.org/2000/svg">
<path d="M35.0625 28.6875H32.9375V39.3125H35.0625V28.6875Z" fill="url(#paint0_linear)"/>
<path d="M45.6875 12.9221C45.6867 10.6486 45.0229 8.42473 43.7774 6.52283C42.5319 4.62092 40.7587 3.12357 38.675 2.21419C38.5133 2.14364 38.3367 2.11444 38.1609 2.12923C37.9852 2.14402 37.8159 2.20232 37.6683 2.29889C37.5207 2.39545 37.3995 2.52724 37.3155 2.68237C37.2316 2.83749 37.1876 3.01107 37.1875 3.18744V12.9221C37.1875 13.7674 36.8517 14.5782 36.2539 15.176C35.6561 15.7737 34.8454 16.1096 34 16.1096C33.1546 16.1096 32.3439 15.7737 31.7461 15.176C31.1483 14.5782 30.8125 13.7674 30.8125 12.9221V3.18744C30.8124 3.01107 30.7684 2.83749 30.6845 2.68237C30.6005 2.52724 30.4793 2.39545 30.3317 2.29889C30.1841 2.20232 30.0148 2.14402 29.8391 2.12923C29.6633 2.11444 29.4866 2.14364 29.325 2.21419C27.2959 3.0991 25.56 4.5423 24.3195 6.37568C23.079 8.20907 22.3849 10.3572 22.3181 12.5698C22.2513 14.7824 22.8146 16.9685 23.9422 18.8734C25.0699 20.7783 26.7155 22.3235 28.6875 23.3293V44.6696C26.717 45.6766 25.0729 47.2225 23.9464 49.1272C22.8199 51.032 22.2573 53.2174 22.3241 55.4294C22.3909 57.6413 23.0843 59.7888 24.3236 61.6222C25.563 63.4555 27.2973 64.8993 29.325 65.7857C29.4866 65.8562 29.6633 65.8854 29.8391 65.8707C30.0148 65.8559 30.1841 65.7976 30.3317 65.701C30.4793 65.6044 30.6005 65.4726 30.6845 65.3175C30.7684 65.1624 30.8124 64.9888 30.8125 64.8124V54.1874C30.8125 53.3421 31.1483 52.5313 31.7461 51.9335C32.3439 51.3358 33.1546 50.9999 34 50.9999C34.8454 50.9999 35.6561 51.3358 36.2539 51.9335C36.8517 52.5313 37.1875 53.3421 37.1875 54.1874V64.8124C37.1875 65.0942 37.2994 65.3645 37.4987 65.5637C37.698 65.763 37.9682 65.8749 38.25 65.8749C38.3964 65.8754 38.5412 65.845 38.675 65.7857C40.7027 64.8993 42.437 63.4555 43.6764 61.6222C44.9157 59.7888 45.6091 57.6413 45.6759 55.4294C45.7426 53.2174 45.1801 51.032 44.0536 49.1272C42.9271 47.2225 41.283 45.6766 39.3125 44.6696V23.3293C41.2308 22.3503 42.8413 20.8604 43.9663 19.0239C45.0913 17.1874 45.6869 15.0757 45.6875 12.9221ZM37.825 46.3154C39.398 47.0012 40.7573 48.0979 41.7602 49.4903C42.7631 50.8826 43.3727 52.5194 43.5248 54.2286C43.677 55.9378 43.3662 57.6565 42.625 59.2041C41.8838 60.7518 40.7396 62.0714 39.3125 63.0243V54.1874C39.3125 52.7785 38.7528 51.4272 37.7565 50.4309C36.7602 49.4347 35.409 48.8749 34 48.8749C32.591 48.8749 31.2398 49.4347 30.2435 50.4309C29.2472 51.4272 28.6875 52.7785 28.6875 54.1874V63.0243C27.2604 62.0714 26.1162 60.7518 25.375 59.2041C24.6338 57.6565 24.323 55.9378 24.4751 54.2286C24.6273 52.5194 25.2369 50.8826 26.2398 49.4903C27.2427 48.0979 28.602 47.0012 30.175 46.3154C30.3644 46.2327 30.5256 46.0966 30.6388 45.9238C30.752 45.7509 30.8124 45.5488 30.8125 45.3421V22.6567C30.8124 22.45 30.752 22.2479 30.6388 22.0751C30.5256 21.9022 30.3644 21.7661 30.175 21.6834C28.602 20.9978 27.2426 19.9012 26.2397 18.5089C25.2367 17.1166 24.6271 15.48 24.475 13.7708C24.3228 12.0616 24.6337 10.343 25.3749 8.79542C26.1161 7.24783 27.2604 5.92839 28.6875 4.97563V12.9221C28.6875 14.331 29.2472 15.6823 30.2435 16.6786C31.2398 17.6749 32.591 18.2346 34 18.2346C35.409 18.2346 36.7602 17.6749 37.7565 16.6786C38.7528 15.6823 39.3125 14.331 39.3125 12.9221V4.97563C40.7396 5.92839 41.8839 7.24783 42.6251 8.79542C43.3663 10.343 43.6772 12.0616 43.525 13.7708C43.3729 15.48 42.7633 17.1166 41.7603 18.5089C40.7573 19.9012 39.398 20.9978 37.825 21.6834C37.6356 21.7661 37.4744 21.9022 37.3612 22.0751C37.248 22.2479 37.1876 22.45 37.1875 22.6567V45.3421C37.1876 45.5488 37.248 45.7509 37.3612 45.9238C37.4744 46.0966 37.6356 46.2327 37.825 46.3154Z" fill="url(#paint1_linear)"/>
<path d="M19.125 40.3749H17.6566L19.0187 37.6623H19.0092C19.0845 37.5153 19.1242 37.3526 19.125 37.1874V30.8124C19.125 30.5306 19.0131 30.2604 18.8138 30.0611C18.6145 29.8618 18.3443 29.7499 18.0625 29.7499H15.9375V10.6249C15.9375 10.5265 15.9239 10.4285 15.8971 10.3338L13.7721 2.89629C13.709 2.67386 13.575 2.47811 13.3906 2.33871C13.2061 2.19932 12.9812 2.1239 12.75 2.1239C12.5188 2.1239 12.2939 2.19932 12.1094 2.33871C11.925 2.47811 11.791 2.67386 11.7279 2.89629L9.60288 10.3338C9.57609 10.4285 9.5625 10.5265 9.5625 10.6249V29.7499H7.4375C7.15571 29.7499 6.88546 29.8618 6.6862 30.0611C6.48694 30.2604 6.375 30.5306 6.375 30.8124V37.1874C6.37793 37.3518 6.4198 37.5131 6.49719 37.6581H6.48656L7.84337 40.3749H6.375C6.09321 40.3749 5.82296 40.4868 5.6237 40.6861C5.42444 40.8854 5.3125 41.1556 5.3125 41.4374V61.1563C5.3136 61.8244 5.52457 62.4752 5.9156 63.0168C6.30662 63.5585 6.85795 63.9636 7.49169 64.1749L12.4142 65.8154C12.6293 65.8876 12.8622 65.8876 13.0772 65.8154L18.0083 64.1749C18.642 63.9636 19.1934 63.5585 19.5844 63.0168C19.9754 62.4752 20.1864 61.8244 20.1875 61.1563V41.4374C20.1875 41.1556 20.0756 40.8854 19.8763 40.6861C19.677 40.4868 19.4068 40.3749 19.125 40.3749ZM11.6875 10.7737L12.75 7.05491L13.8125 10.7737V29.7499H11.6875V10.7737ZM8.5 31.8749H17V36.1249H8.5V31.8749ZM9.15663 38.2499H16.3434L15.2809 40.3749H10.2191L9.15663 38.2499ZM7.4375 61.1563V42.4999H11.6875V63.3377L8.16425 62.1689C7.9519 62.0982 7.76731 61.9622 7.63681 61.7804C7.5063 61.5985 7.43655 61.3802 7.4375 61.1563ZM18.0625 61.1563C18.0626 61.3794 17.9924 61.5969 17.8619 61.7779C17.7315 61.9588 17.5474 62.0942 17.3357 62.1647L13.8125 63.3377V42.4999H18.0625V61.1563Z" fill="url(#paint2_linear)"/>
<path d="M58.4375 36.1248C58.7193 36.1248 58.9895 36.0129 59.1888 35.8136C59.3881 35.6143 59.5 35.3441 59.5 35.0623V30.8123C59.5 30.5305 59.3881 30.2603 59.1888 30.061C58.9895 29.8617 58.7193 29.7498 58.4375 29.7498H57.375V11.818L58.4056 7.69442C58.4439 7.54125 58.4475 7.38148 58.4163 7.22673C58.385 7.07197 58.3197 6.92613 58.225 6.79979L55.0375 2.54979C54.9342 2.42429 54.8045 2.32322 54.6575 2.25382C54.5105 2.18443 54.35 2.14844 54.1875 2.14844C54.025 2.14844 53.8645 2.18443 53.7175 2.25382C53.5705 2.32322 53.4408 2.42429 53.3375 2.54979L50.15 6.79979C50.0553 6.92613 49.99 7.07197 49.9587 7.22673C49.9275 7.38148 49.9311 7.54125 49.9694 7.69442L51 11.818V29.7498H49.9375C49.6557 29.7498 49.3855 29.8617 49.1862 30.061C48.9869 30.2603 48.875 30.5305 48.875 30.8123V35.0623C48.875 35.3441 48.9869 35.6143 49.1862 35.8136C49.3855 36.0129 49.6557 36.1248 49.9375 36.1248H51V40.3748H49.9375C49.6557 40.3748 49.3855 40.4867 49.1862 40.686C48.9869 40.8853 48.875 41.1555 48.875 41.4373V64.8123C48.875 65.0941 48.9869 65.3643 49.1862 65.5636C49.3855 65.7629 49.6557 65.8748 49.9375 65.8748H58.4375C58.7193 65.8748 58.9895 65.7629 59.1888 65.5636C59.3881 65.3643 59.5 65.0941 59.5 64.8123V41.4373C59.5 41.1555 59.3881 40.8853 59.1888 40.686C58.9895 40.4867 58.7193 40.3748 58.4375 40.3748H57.375V36.1248H58.4375ZM53.0931 11.4302L52.1539 7.66998L54.1875 4.95848L56.2211 7.66998L55.2819 11.4302C55.2606 11.5142 55.2499 11.6006 55.25 11.6873V29.7498H53.125V11.6873C53.1251 11.6006 53.1144 11.5142 53.0931 11.4302ZM51 31.8748H57.375V33.9998H51V31.8748ZM57.375 63.7498H51V42.4998H57.375V63.7498ZM55.25 40.3748H53.125V36.1248H55.25V40.3748Z" fill="url(#paint3_linear)"/>
<path d="M55.25 44.625H53.125V46.75H55.25V44.625Z" fill="url(#paint4_linear)"/>
<path d="M35.0625 24.4375H32.9375V26.5625H35.0625V24.4375Z" fill="url(#paint5_linear)"/>
<path d="M35.0625 41.4375H32.9375V43.5625H35.0625V41.4375Z" fill="url(#paint6_linear)"/>
<defs>
<linearGradient id="paint0_linear" x1="31.0056" y1="34" x2="37.0138" y2="34" gradientUnits="userSpaceOnUse">
<stop stop-color="#FF4B55" stop-opacity="0.74"/>
<stop offset="0.229" stop-color="#FC4D42"/>
<stop offset="0.711" stop-color="#EB352D"/>
<stop offset="1" stop-color="#D21414"/>
</linearGradient>
<linearGradient id="paint1_linear" x1="1.0625" y1="33.9999" x2="67.1511" y2="33.9999" gradientUnits="userSpaceOnUse">
<stop stop-color="#FF4B55" stop-opacity="0.74"/>
<stop offset="0.229" stop-color="#FC4D42"/>
<stop offset="0.711" stop-color="#EB352D"/>
<stop offset="1" stop-color="#D21414"/>
</linearGradient>
<linearGradient id="paint2_linear" x1="-8.21062" y1="33.9965" x2="33.8463" y2="33.9965" gradientUnits="userSpaceOnUse">
<stop stop-color="#FF4B55" stop-opacity="0.74"/>
<stop offset="0.229" stop-color="#FC4D42"/>
<stop offset="0.711" stop-color="#EB352D"/>
<stop offset="1" stop-color="#D21414"/>
</linearGradient>
<linearGradient id="paint3_linear" x1="39.2156" y1="34.0113" x2="69.2563" y2="34.0113" gradientUnits="userSpaceOnUse">
<stop stop-color="#FF4B55" stop-opacity="0.74"/>
<stop offset="0.229" stop-color="#FC4D42"/>
<stop offset="0.711" stop-color="#EB352D"/>
<stop offset="1" stop-color="#D21414"/>
</linearGradient>
<linearGradient id="paint4_linear" x1="51.1931" y1="45.6875" x2="57.2013" y2="45.6875" gradientUnits="userSpaceOnUse">
<stop stop-color="#FF4B55" stop-opacity="0.74"/>
<stop offset="0.229" stop-color="#FC4D42"/>
<stop offset="0.711" stop-color="#EB352D"/>
<stop offset="1" stop-color="#D21414"/>
</linearGradient>
<linearGradient id="paint5_linear" x1="31.0056" y1="25.5" x2="37.0138" y2="25.5" gradientUnits="userSpaceOnUse">
<stop stop-color="#FF4B55" stop-opacity="0.74"/>
<stop offset="0.229" stop-color="#FC4D42"/>
<stop offset="0.711" stop-color="#EB352D"/>
<stop offset="1" stop-color="#D21414"/>
</linearGradient>
<linearGradient id="paint6_linear" x1="31.0056" y1="42.5" x2="37.0138" y2="42.5" gradientUnits="userSpaceOnUse">
<stop stop-color="#FF4B55" stop-opacity="0.74"/>
<stop offset="0.229" stop-color="#FC4D42"/>
<stop offset="0.711" stop-color="#EB352D"/>
<stop offset="1" stop-color="#D21414"/>
</linearGradient>
</defs>
</svg>
